<svg width="223" height="40" viewBox="0 0 223 40" fill="none" xmlns="http://www.w3.org/2000/svg">
<g clip-path="url(#clip0_72_140)">
<path d="M12.3281 0L22.6623 8.82887C23.2758 9.35302 23.6294 10.1222 23.6294 10.9323V17.5862L13.2953 8.75734C12.6817 8.23319 12.3281 7.464 12.3281 6.65386V0Z" fill="#7B19D8"/>
<path d="M12.3281 40L22.6623 31.1711C23.2758 30.647 23.6294 29.8778 23.6294 29.0677V22.4138L13.2953 31.2427C12.6817 31.7668 12.3281 32.536 12.3281 33.3461V40Z" fill="#7B19D8"/>
<path d="M0 9.31036L10.1936 17.9705C10.6878 18.3904 11.3137 18.6207 11.9603 18.6207H20.181L10.0125 9.96255C9.51795 9.54143 8.89118 9.31036 8.24346 9.31036H0Z" fill="#7B19D8"/>
<path d="M0 30.6897L10.1309 22.0345C10.626 21.6115 11.2542 21.3793 11.9034 21.3793H20.2055L10.0119 30.0394C9.51769 30.4593 8.89185 30.6897 8.24517 30.6897H0Z" fill="#7B19D8"/>
<path d="M37.6704 0L27.3362 8.82887C26.7227 9.35302 26.3691 10.1222 26.3691 10.9323V17.5862L36.7032 8.75734C37.3168 8.23319 37.6704 7.464 37.6704 6.65386V0Z" fill="#7B19D8"/>
<path d="M37.6704 40L27.3362 31.1711C26.7227 30.647 26.3691 29.8778 26.3691 29.0677V22.4138L36.7032 31.2427C37.3168 31.7668 37.6704 32.536 37.6704 33.3461V40Z" fill="#7B19D8"/>
<path d="M49.9994 9.31036L39.8058 17.9705C39.3116 18.3904 38.6857 18.6207 38.0391 18.6207H29.8184L39.9869 9.96255C40.4815 9.54143 41.1082 9.31036 41.7559 9.31036H49.9994Z" fill="#7B19D8"/>
<path d="M50.0004 30.6897L39.8695 22.0345C39.3744 21.6115 38.7462 21.3793 38.097 21.3793H29.7949L39.9885 30.0394C40.4827 30.4593 41.1085 30.6897 41.7552 30.6897H50.0004Z" fill="#7B19D8"/>
<path d="M132.775 10.6686C132.114 10.6686 131.56 10.4448 131.112 9.99709C130.664 9.54942 130.441 8.99516 130.441 8.3343C130.441 7.67345 130.664 7.11919 131.112 6.67151C131.56 6.22384 132.114 6 132.775 6C133.415 6 133.959 6.22384 134.406 6.67151C134.854 7.11919 135.078 7.67345 135.078 8.3343C135.078 8.99516 134.854 9.54942 134.406 9.99709C133.959 10.4448 133.415 10.6686 132.775 10.6686Z" fill="#320C55"/>
<path d="M134.566 13.0029V30.6221H130.92V13.0029H134.566Z" fill="#320C55"/>
<path fill-rule="evenodd" clip-rule="evenodd" d="M144.407 13.5465C143.341 14.1008 142.498 14.783 141.88 15.593V13.0029H138.234V39H141.88V28.064C142.541 28.874 143.394 29.5562 144.439 30.1105C145.483 30.6434 146.678 30.9099 148.021 30.9099C149.556 30.9099 150.953 30.5262 152.211 29.7587C153.49 28.97 154.492 27.8828 155.217 26.4971C155.942 25.0901 156.304 23.5019 156.304 21.7326C156.304 19.9632 155.942 18.3963 155.217 17.032C154.492 15.6676 153.49 14.6124 152.211 13.8663C150.953 13.0988 149.556 12.7151 148.021 12.7151C146.678 12.7151 145.473 12.9923 144.407 13.5465ZM151.827 18.5988C152.339 19.4729 152.594 20.5174 152.594 21.7326C152.594 22.9477 152.339 24.0136 151.827 24.9302C151.336 25.8469 150.675 26.5504 149.844 27.0407C149.034 27.5097 148.159 27.7442 147.221 27.7442C146.304 27.7442 145.43 27.5097 144.599 27.0407C143.788 26.5717 143.127 25.8895 142.616 24.9942C142.125 24.0775 141.88 23.0116 141.88 21.7965C141.88 20.5814 142.125 19.5262 142.616 18.6308C143.127 17.7355 143.788 17.0533 144.599 16.5843C145.43 16.1153 146.304 15.8808 147.221 15.8808C148.159 15.8808 149.034 16.1153 149.844 16.5843C150.675 17.032 151.336 17.7035 151.827 18.5988Z" fill="#320C55"/>
<path d="M165.186 30.9099C163.8 30.9099 162.553 30.6647 161.444 30.1744C160.357 29.6628 159.493 28.9806 158.854 28.1279C158.214 27.2539 157.873 26.2839 157.83 25.218H161.604C161.668 25.9641 162.02 26.593 162.66 27.1047C163.321 27.595 164.142 27.8401 165.122 27.8401C166.146 27.8401 166.935 27.6483 167.489 27.2645C168.065 26.8595 168.353 26.3479 168.353 25.7297C168.353 25.0688 168.033 24.5785 167.393 24.2587C166.775 23.939 165.783 23.5872 164.419 23.2035C163.097 22.8411 162.02 22.4893 161.188 22.1483C160.357 21.8072 159.632 21.2849 159.014 20.5814C158.417 19.8779 158.118 18.9506 158.118 17.7994C158.118 16.8614 158.395 16.0087 158.95 15.2413C159.504 14.4525 160.293 13.8343 161.316 13.3866C162.361 12.939 163.555 12.7151 164.898 12.7151C166.903 12.7151 168.513 13.2267 169.728 14.25C170.965 15.2519 171.626 16.6269 171.711 18.375H168.065C168.001 17.5862 167.681 16.9574 167.105 16.4884C166.53 16.0194 165.751 15.7849 164.771 15.7849C163.811 15.7849 163.075 15.9661 162.564 16.3285C162.052 16.6909 161.796 17.1705 161.796 17.7674C161.796 18.2364 161.967 18.6308 162.308 18.9506C162.649 19.2704 163.065 19.5262 163.555 19.718C164.046 19.8886 164.771 20.1124 165.73 20.3895C167.009 20.7306 168.054 21.0824 168.864 21.4448C169.696 21.7859 170.41 22.2975 171.007 22.9797C171.604 23.6618 171.913 24.5678 171.935 25.6977C171.935 26.6996 171.658 27.595 171.103 28.3837C170.549 29.1725 169.76 29.7907 168.736 30.2384C167.734 30.686 166.551 30.9099 165.186 30.9099Z" fill="#320C55"/>
<path d="M219.449 13.5785C218.361 13.0029 217.125 12.7151 215.739 12.7151C214.438 12.7151 213.223 13.0349 212.093 13.6744C210.963 14.2926 210.131 15.1347 209.598 16.2006C209.001 15.0707 208.148 14.2074 207.039 13.6105C205.931 13.0136 204.673 12.7151 203.265 12.7151C202.221 12.7151 201.24 12.9176 200.323 13.3227C199.406 13.7277 198.649 14.2926 198.052 15.0174V13.0029H194.406V30.6221H198.052V20.7733C198.052 19.1957 198.447 17.9913 199.235 17.1599C200.046 16.3072 201.133 15.8808 202.498 15.8808C203.862 15.8808 204.939 16.3072 205.728 17.1599C206.517 17.9913 206.911 19.1957 206.911 20.7733V30.6221H210.526V20.7733C210.526 19.1957 210.92 17.9913 211.709 17.1599C212.519 16.3072 213.607 15.8808 214.971 15.8808C216.336 15.8808 217.413 16.3072 218.202 17.1599C218.99 17.9913 219.385 19.1957 219.385 20.7733V30.6221H222.999V20.2297C222.999 18.6308 222.679 17.2665 222.04 16.1366C221.421 15.0068 220.558 14.1541 219.449 13.5785Z" fill="#320C55"/>
<path d="M190.716 30.6221V13.0029H187.07V22.8198C187.07 24.3973 186.664 25.6124 185.854 26.4651C185.065 27.2965 183.989 27.7122 182.624 27.7122C181.259 27.7122 180.183 27.2965 179.394 26.4651C178.605 25.6124 178.21 24.3973 178.21 22.8198V13.0029H174.596V23.3634C174.596 24.9622 174.905 26.3265 175.524 27.4564C176.163 28.5862 177.027 29.4389 178.114 30.0145C179.223 30.5901 180.47 30.8779 181.856 30.8779C182.901 30.8779 183.882 30.6754 184.799 30.2703C185.737 29.844 186.494 29.2684 187.07 28.5436V30.6221H190.716Z" fill="#320C55"/>
<path fill-rule="evenodd" clip-rule="evenodd" d="M114.779 29.7907C116.122 30.5368 117.625 30.9099 119.288 30.9099C120.973 30.9099 122.508 30.5368 123.894 29.7907C125.301 29.0233 126.41 27.9467 127.22 26.561C128.03 25.1754 128.435 23.5872 128.435 21.7965C128.435 20.0058 128.041 18.4176 127.252 17.032C126.463 15.6463 125.386 14.5804 124.022 13.8343C122.657 13.0882 121.133 12.7151 119.448 12.7151C117.764 12.7151 116.239 13.0882 114.874 13.8343C113.51 14.5804 112.433 15.6463 111.644 17.032C110.855 18.4176 110.461 20.0058 110.461 21.7965C110.461 23.6085 110.845 25.2074 111.612 26.593C112.38 27.9574 113.435 29.0233 114.779 29.7907ZM121.911 27.0727C121.101 27.5203 120.226 27.7442 119.288 27.7442C117.817 27.7442 116.591 27.2326 115.61 26.2093C114.651 25.1647 114.171 23.6938 114.171 21.7965C114.171 20.5174 114.405 19.4409 114.874 18.5669C115.344 17.6715 115.973 17 116.761 16.5523C117.572 16.1047 118.446 15.8808 119.384 15.8808C120.322 15.8808 121.196 16.1047 122.007 16.5523C122.817 17 123.467 17.6715 123.958 18.5669C124.448 19.4409 124.693 20.5174 124.693 21.7965C124.693 23.0756 124.437 24.1628 123.926 25.0581C123.414 25.9535 122.742 26.625 121.911 27.0727Z" fill="#320C55"/>
<path fill-rule="evenodd" clip-rule="evenodd" d="M95.5774 29.8314C95.5527 29.818 95.5279 29.8044 95.5033 29.7907C94.16 29.0233 93.1045 27.9574 92.3369 26.593C91.5693 25.2074 91.1855 23.6085 91.1855 21.7965C91.1855 20.0058 91.58 18.4176 92.3689 17.032C93.1578 15.6463 94.2346 14.5804 95.5992 13.8343C96.9639 13.0882 98.4884 12.7151 100.173 12.7151C101.857 12.7151 103.382 13.0882 104.747 13.8343C106.111 14.5804 107.188 15.6463 107.977 17.032C108.766 18.4176 109.16 20.0058 109.16 21.7965C109.16 23.5872 108.755 25.1754 107.945 26.561C107.135 27.9467 106.026 29.0233 104.619 29.7907C103.427 30.4323 102.125 30.7981 100.712 30.8879C102.443 31.6797 105.076 32.319 106.554 32.6779C107.187 32.8316 107.608 32.9338 107.657 32.9747L107.659 32.9752V36.6231H94.3754V32.9752H102.03C100.083 32.5355 97.4382 31.0922 95.5774 29.8314ZM100.013 27.7442C100.951 27.7442 101.825 27.5203 102.636 27.0727C103.467 26.625 104.139 25.9535 104.651 25.0581C105.162 24.1628 105.418 23.0756 105.418 21.7965C105.418 20.5174 105.173 19.4409 104.683 18.5669C104.192 17.6715 103.542 17 102.732 16.5523C101.921 16.1047 101.047 15.8808 100.109 15.8808C99.1707 15.8808 98.2965 16.1047 97.4862 16.5523C96.6973 17 96.0683 17.6715 95.5992 18.5669C95.1301 19.4409 94.8956 20.5174 94.8956 21.7965C94.8956 23.6938 95.3753 25.1647 96.3348 26.2093C97.3157 27.2326 98.5417 27.7442 100.013 27.7442Z" fill="#320C55"/>
<path fill-rule="evenodd" clip-rule="evenodd" d="M76.2259 29.7907C77.5692 30.5368 79.0724 30.9099 80.7356 30.9099C82.42 30.9099 83.9552 30.5368 85.3412 29.7907C86.7484 29.0233 87.8572 27.9467 88.6674 26.561C89.4777 25.1754 89.8828 23.5872 89.8828 21.7965C89.8828 20.0058 89.4883 18.4176 88.6994 17.032C87.9105 15.6463 86.8337 14.5804 85.4691 13.8343C84.1045 13.0882 82.5799 12.7151 80.8955 12.7151C79.211 12.7151 77.6865 13.0882 76.3219 13.8343C74.9573 14.5804 73.8805 15.6463 73.0916 17.032C72.3027 18.4176 71.9082 20.0058 71.9082 21.7965C71.9082 23.6085 72.292 25.2074 73.0596 26.593C73.8272 27.9574 74.8826 29.0233 76.2259 29.7907ZM83.3582 27.0727C82.548 27.5203 81.6737 27.7442 80.7356 27.7442C79.2643 27.7442 78.0383 27.2326 77.0575 26.2093C76.098 25.1647 75.6183 23.6938 75.6183 21.7965C75.6183 20.5174 75.8528 19.4409 76.3219 18.5669C76.791 17.6715 77.42 17 78.2089 16.5523C79.0191 16.1047 79.8933 15.8808 80.8315 15.8808C81.7697 15.8808 82.6439 16.1047 83.4541 16.5523C84.2644 17 84.9147 17.6715 85.4051 18.5669C85.8955 19.4409 86.1407 20.5174 86.1407 21.7965C86.1407 23.0756 85.8849 24.1628 85.3731 25.0581C84.8614 25.9535 84.1898 26.625 83.3582 27.0727Z" fill="#320C55"/>
<path d="M63.6461 27.6802H71.1621V30.6221H60V8.39825H63.6461V27.6802Z" fill="#320C55"/>
</g>
<defs>
<clipPath id="clip0_72_140">
<rect width="223" height="40" fill="white"/>
</clipPath>
</defs>
</svg>
